<?xml version='1.0' encoding='UTF-8' standalone='no'?>
<!-- Created with Fritzing (http://www.fritzing.org/) -->
<svg xmlns:svg='http://www.w3.org/2000/svg' xmlns='http://www.w3.org/2000/svg' version='1.2' baseProfile='tiny' x='0in' y='0in' width='4.5842in' height='3.59583in' viewBox='0 0 330.062 258.9' >
<path stroke='#000000' stroke-width='2.16' stroke-linecap='round' stroke-linejoin='round' fill='none' d='M80.4939,250.98L81.6624,251.7' />
<path stroke='#ff0000' stroke-width='2.16' stroke-linecap='round' stroke-linejoin='round' fill='none' d='M80.7199,244.253L81.6624,244.5' />
<path stroke='#ffff00' stroke-width='2.16' stroke-linecap='round' stroke-linejoin='round' fill='none' d='M80.604,237.497L81.6624,237.3' />
<g partID='67150'><g transform='translate(0,190.904)' ><g transform="matrix(1, 0, 0, 1, -0.400297, 32.424)">
 <g  id="breadboard">
  <rect  height="0.72" fill="none" x="73.0462" y="20.1499" id="connector0pin" width="0.72"/>
  <rect  height="0.72" fill="none" x="73.1246" y="18.1174" id="connector1pin" width="0.72"/>
  <rect  height="0.72" fill="none" x="73.0462" y="16.1136" id="connector2pin" width="0.72"/>
  <g  x1="112.353" stroke="#000000" x2="113.976032" fill="none" stroke-width="2.16" stroke-linecap="round" id="connector0leg" y1="38.406" y2="39.406"/>
  <g  x1="112.667" stroke="#FF0000" x2="113.976032" fill="none" stroke-width="2.16" stroke-linecap="round" id="connector1leg" y1="29.063" y2="29.406"/>
  <g  x1="112.506" stroke="#FFFF00" x2="113.976032" fill="none" stroke-width="2.16" stroke-linecap="round" id="connector2leg" y1="19.68" y2="19.406"/>
  <path  stroke="#000000" d="M73.0462,20.1499c0,0,-5.09688,-1.34568,7.848,7.5024" fill="none" stroke-width="2.16" id="path7"/>
  <path  stroke="#FF0000" d="M73.1246,18.1174c4.03488,0,4.1076,1.17288,7.9956,2.808" fill="none" stroke-width="2.16" id="path9"/>
  <path  stroke="#FFFF00" d="M73.0462,16.1136c5.382,0,7.59816,-3.17664,7.95816,-0.936" fill="none" stroke-width="2.16" id="path11"/>
  <polygon  points="0.40032,6.69744,12.5078,6.69744,12.5078,-6.75648,70.3562,-6.75648,70.3562,6.69744,82.463,6.69744,82.463,8.04168,70.3562,8.04168,70.3562,33.6017,12.5078,33.6017,12.5078,8.04168,0.40032,8.04168" fill="#333333" id="polygon13"/>
  <polygon  points="8.47152,8.04168,12.5078,8.04168,12.5078,33.6017,8.47152,29.5668" id="polygon15"/>
  <polygon  points="12.5078,6.69744,0.40032,6.69744,0.40032,-0.03024,8.47152,-0.03024,8.47152,2.6604" fill="#999999" id="polygon17"/>
  <polygon  points="12.5078,-6.75648,8.47152,-10.7921,8.47152,-18.864,12.5078,-22.8996,70.3562,-22.8996,74.3911,-18.864,74.3911,-10.7921,70.3562,-6.75648" fill="#999999" id="polygon19"/>
  <polygon  points="74.3911,8.04168,70.3562,8.04168,70.3562,33.6017,74.3911,29.5668" fill="#666666" id="polygon21"/>
  <polygon  points="70.3562,6.69744,82.4638,6.69744,82.4638,-0.03024,74.3911,-0.03024,74.3911,2.6604" fill="#999999" id="polygon23"/>
  <polygon  points="8.47152,-10.7921,12.5078,-6.75648,12.5078,6.69744,8.47152,2.6604" id="polygon25"/>
  <polygon  points="74.3911,-10.7921,70.3562,-6.75648,70.3562,6.69744,74.3911,2.6604" fill="#666666" id="polygon27"/>
  <path  d="M32.0191,-12.6763c-4.72464,2.5992,-9.92592,1.10952,-11.911,-0.11664C18.1224,-14.0191,6.38568,-24.0034,4.81032,-24.9962c-1.5768,-0.99288,-1.40184,-2.3904,-1.40184,-4.41432c0,-2.57544,1.28448,1.92672,3.97152,3.15288c2.68488,1.22616,27.1318,4.24296,27.1318,8.7192C34.5103,-16.1762,35.0554,-14.3467,32.0191,-12.6763z" fill="#CCCCCC" id="path29"/>
  <path  d="M32.0191,-14.0544c-4.49568,2.97792,-9.92592,1.10952,-11.911,-0.11736C18.1224,-15.3979,6.38568,-25.3822,4.81032,-26.375c-1.5768,-0.99216,-2.21904,-3.91176,-0.05832,-5.31288c2.16,-1.40112,5.13792,-0.58464,7.82352,0.64224c2.6856,1.22616,13.9558,5.95512,17.8085,8.2332C34.2382,-20.5358,36.5162,-17.0323,32.0191,-14.0544zM8.39088,-27.6206c1.89216,0,3.42648,-0.7668,3.42648,-1.71288s-1.53432,-1.71216,-3.42648,-1.71216c-1.89216,0,-3.42576,0.76608,-3.42576,1.71216S6.49872,-27.6206,8.39088,-27.6206z" fill="#FFFFFF" id="path31"/>
  <g  id="g33">
   <path  d="M11.772,-28.9649c-0.33984,-0.7668,-1.70568,-1.34064,-3.34296,-1.34064c-1.63584,0,-3.04632,0.57312,-3.38616,1.33992l0.00288,0.00072c-0.05184,-0.1188,-0.08064,-0.2412,-0.08064,-0.36792c0,-0.94608,1.5336,-1.71216,3.42576,-1.71216c1.89216,0,3.42648,0.76608,3.42648,1.71216c0,0.12672,0,0.25632,-0.05184,0.37512L11.772,-28.9649z" fill="#CCCCCC" id="path35"/>
  </g>
  <g  id="g37">
   <ellipse  rx="5.76144" ry="3.2148" fill="#999999" id="ellipse39" cx="25.9862" cy="-18.2779"/>
   <g  id="g41">
    <path  d="M20.3285,-18.3089c0.57168,1.38168,2.8692,2.41632,5.62104,2.41632c2.75184,0,5.12352,-1.03392,5.69664,-2.41632l-0.00576,0c0.08712,0.21312,0.13536,0.43488,0.13536,0.6624c0,1.70496,-2.57904,3.08736,-5.76144,3.08736c-3.1824,0,-5.76144,-1.3824,-5.76144,-3.08736c0,-0.22752,-0.00072,-0.46224,0.0864,-0.67536L20.3285,-18.3089z" fill="#666666" id="path43"/>
   </g>
  </g>
  <g  id="g45">
   <path  d="M40.7052,-16.7213l0,0.81792l2.45232,0l0,0.8172l0.8172,0l0,0.8172l-0.8172,0l0,0.81792l-4.08816,0l0,-0.81792l3.26952,0l0,-0.8172l-2.45232,0l0,-0.8172l-0.8172,0l0,-0.81792l0.8172,0l0,-0.8172l4.08816,0l0,0.8172L40.7052,-16.7213z" fill="#FFCC33" id="path47"/>
   <path  d="M49.6966,-17.5385l0,0.8172l-3.26952,0l0,0.81792l2.45232,0l0,0.8172l-2.45232,0l0,0.8172l3.26952,0l0,0.81792l-4.90464,0l0,-4.08744L49.6966,-17.5385L49.6966,-17.5385z" fill="#FFCC33" id="path49"/>
   <path  d="M54.6019,-16.7213l0.81864,0l0,1.63512l-0.81864,0l0,0.8172l0.81864,0l0,0.81792l-2.45232,0l0,-0.81792L52.1496,-14.269l0,0.81792l-1.63512,0l0,-4.08744l4.08744,0L54.6019,-16.7213L54.6019,-16.7213zM53.784,-16.7213L52.1496,-16.7213l0,1.63512L53.784,-15.0862L53.784,-16.7213z" fill="#FFCC33" id="path51"/>
   <path  d="M61.1417,-17.5385l0,1.63512l-0.8172,0l0,1.6344l-0.81936,0l0,0.81792l-1.63512,0l0,-0.81792l-0.8172,0l0,-1.6344l-0.81792,0l0,-1.63512l1.63512,0l0,1.63512l1.63512,0l0,-1.63512L61.1417,-17.5385z" fill="#FFCC33" id="path53"/>
   <path  d="M62.7761,-13.451l0,-0.81792l-0.8172,0l0,-2.45232l0.8172,0l0,-0.8172l3.26952,0l0,0.8172l0.81792,0l0,2.45232L66.0456,-14.269l0,0.81792L62.7761,-13.451L62.7761,-13.451zM65.2291,-14.269l0,-2.45232l-1.63512,0l0,2.45232L65.2291,-14.269z" fill="#FFCC33" id="path55"/>
  </g>
 </g>
</g>
</g></g><path stroke='#000000' stroke-width='2.5034' stroke-linecap='round' stroke-linejoin='round' fill='none' d='M218.462,153.1L218.462,158.1' />
<path stroke='#ff0000' stroke-width='2.5034' stroke-linecap='round' stroke-linejoin='round' fill='none' d='M295.061,153.1L295.061,158.1' />
<g partID='69790'><g transform='translate(320.967,0)' ><g transform='matrix(0,1,-1,0,0,0)'  ><g xmlns="http://www.w3.org/2000/svg" id="breadboard">
 <rect xmlns="http://www.w3.org/2000/svg" height="1" fill="none" x="147.467" y="102.505" id="connector0pin" width="2.999"/>
 <rect xmlns="http://www.w3.org/2000/svg" height="1" fill="none" x="150.426" y="25.906" id="connector1pin" width="3"/>
 <g xmlns="http://www.w3.org/2000/svg" x1="153.1" stroke="#000000" x2="158.1" fill="none" stroke-width="2.5034" stroke-linecap="round" id="connector0leg" y1="102.505" y2="102.505"/>
 <g xmlns="http://www.w3.org/2000/svg" x1="153.1" stroke="#FF0000" x2="158.1" fill="none" stroke-width="2.5034" stroke-linecap="round" id="connector1leg" y1="25.906" y2="25.906"/>
 <path xmlns="http://www.w3.org/2000/svg" d="M147.45,131.049c0,1.014,-1.094,1.718,-2.055,1.718L2.059,132.767c-1.362,0,-2.057,-0.576,-2.057,-1.718L0.002,1.715C0.002,0.81,0.85,0,2.059,0l143.336,0c1.113,0,2.055,0.682,2.055,1.715l0,63.228L147.45,131.049z" fill="#1A1A1A"/>
 <path xmlns="http://www.w3.org/2000/svg" stroke="#C9C9C9" d="M2.145,47.336L2.145,7.3c0,-0.59,0.388,-1.08,0.863,-1.08s0.86,0.489,0.86,1.08l0.913,19.527c0,0.594,0.391,1.08,0.863,1.08s0.863,-0.486,0.863,-1.08L7.42,11.699c0,-0.593,0.389,-1.08,0.861,-1.08c0.475,0,0.861,0.487,0.861,1.08l0,11.887" fill="none" stroke-width="0.8345"/>
 <path xmlns="http://www.w3.org/2000/svg" stroke="#C9C9C9" d="M144.715,10.371l0,14.456c0,0.594,0.583,1.08,1.295,1.08l1.465,0" fill="none" stroke-width="0.8345"/>
 <rect xmlns="http://www.w3.org/2000/svg" height="12.025" fill="#C9C9C9" x="1.706" y="43.059" width="3.46"/>
 <rect xmlns="http://www.w3.org/2000/svg" height="12.029" fill="#C9C9C9" x="141.869" y="10.435" width="2.95"/>
 <g xmlns="http://www.w3.org/2000/svg">
  <path xmlns="http://www.w3.org/2000/svg" d="M139.273,28.955c0,1.784,-1.747,3.24,-3.883,3.24L13.464,32.195c-2.136,0,-3.883,-1.456,-3.883,-3.24L9.581,5.195c0,-1.781,1.747,-3.239,3.883,-3.239L135.39,1.956c2.137,0,3.884,1.458,3.884,3.239L139.273,28.955L139.273,28.955z" fill="#353535"/>
  <path xmlns="http://www.w3.org/2000/svg" d="M101.94,2.005l33.709,0c2.136,0,3.883,1.457,3.883,3.24l0,23.766c0,1.782,-1.747,3.24,-3.883,3.24L101.94,32.251L101.94,2.005z" fill="#CE925D"/>
  <path xmlns="http://www.w3.org/2000/svg" d="M13.758,30.957c-1.607,0,-3.658,-1.242,-3.658,-2.714l0,-6.801c0,1.474,2.051,3.784,3.658,3.784l121.041,0c1.608,0,3.659,-2.31,3.659,-3.784l0,6.802c0,1.474,-2.051,2.714,-3.659,2.714L13.758,30.957L13.758,30.957z" enable-background="new    " opacity="0.35"/>
  <path xmlns="http://www.w3.org/2000/svg" d="M139.164,16.875c0,6.774,-0.31,12.263,-0.691,12.263s-0.382,-24.524,0,-24.524S139.164,10.103,139.164,16.875" fill="#B2B2B2"/>
  <path xmlns="http://www.w3.org/2000/svg" d="M138.906,21.055c-0.254,0,-0.254,-9.061,0,-9.061l-0.008,0c0,0.559,0.543,1.011,1.212,1.011l0.549,0c0.668,0,1.211,0.453,1.211,1.012l0,5.011c0,0.557,-0.543,1.012,-1.211,1.012l-0.549,0c-0.669,0,-1.212,0.452,-1.212,1.01L138.906,21.055L138.906,21.055z" fill="#7C7C7C"/>
  <g xmlns="http://www.w3.org/2000/svg">
   <g xmlns="http://www.w3.org/2000/svg">
    <path xmlns="http://www.w3.org/2000/svg" d="M35.434,14.8l-0.515,1.295l-1.632,0l2.727,-6.852l2.322,0l2.781,6.852l-1.599,0L38.982,14.8L35.434,14.8zM37.218,10.25l-0.022,0l-1.401,3.555l2.836,0L37.218,10.25z" fill="#E0E0E0"/>
    <path xmlns="http://www.w3.org/2000/svg" d="M27.472,14.8l-0.515,1.295l-1.632,0l2.727,-6.852l2.322,0l2.781,6.852l-1.599,0L31.021,14.8L27.472,14.8zM29.256,10.25l-0.022,0l-1.401,3.555l2.836,0L29.256,10.25z" fill="#E0E0E0"/>
    <path xmlns="http://www.w3.org/2000/svg" d="M43.203,14.8l-0.515,1.295l-1.629,0l2.724,-6.852l2.322,0l2.782,6.852l-1.599,0L46.752,14.8L43.203,14.8zM44.987,10.25l-0.021,0l-1.403,3.555l2.836,0L44.987,10.25z" fill="#E0E0E0"/>
    <path xmlns="http://www.w3.org/2000/svg" d="M53.417,16.098L53.417,9.246l4.088,0c1.61,0,2.417,0.272,2.417,1.783c0,0.783,-0.173,1.316,-1.169,1.515l0,0.038c1.15,0.11,1.369,0.741,1.369,1.606c0,1.517,-0.745,1.911,-2.476,1.911L53.417,16.098L53.417,16.098zM54.994,12.114l2.264,0c0.891,0,1.085,-0.229,1.085,-0.959c0,-0.731,-0.351,-0.786,-1.128,-0.786l-2.224,0L54.994,12.114L54.994,12.114zM54.994,14.974l2.158,0c0.938,0,1.389,-0.055,1.389,-0.896c0,-0.749,-0.197,-0.968,-1.125,-0.968l-2.42,0L54.994,14.974L54.994,14.974z" fill="#E0E0E0"/>
    <path xmlns="http://www.w3.org/2000/svg" d="M64.998,15.494l-0.033,0c-0.274,0.642,-1.117,0.658,-1.786,0.658c-1.303,0,-2.146,-0.229,-2.146,-1.526c0,-1.151,0.723,-1.471,2.146,-1.471c0.702,0,1.391,0.009,1.72,0.548l0.044,0l0,-0.622c0,-0.777,-0.077,-1.051,-1.227,-1.051c-0.603,0,-1.085,0.048,-1.085,0.667L61.25,12.697c0,-1.398,1.153,-1.451,2.464,-1.451c1.843,0,2.606,0.238,2.606,1.846l0,3.004l-1.382,0L64.998,15.494zM62.413,14.626c0,0.676,0.326,0.741,1.259,0.741c0.733,0,1.271,-0.053,1.271,-0.741c0,-0.667,-0.59,-0.685,-1.271,-0.685C62.971,13.941,62.413,13.941,62.413,14.626z" fill="#E0E0E0"/>
    <path xmlns="http://www.w3.org/2000/svg" d="M66.994,11.3l0.724,0l0,-1.088l1.38,0L69.098,11.3l2.201,0l0,0.877l-2.201,0l0,2.458c0.013,0.439,0.013,0.639,0.59,0.639c0.778,0,0.69,-0.511,0.69,-1.011l1.216,0c0.022,1.45,-0.417,1.889,-1.906,1.889c-1.511,0,-1.972,-0.292,-1.972,-1.508l0,-2.467l-0.724,0L66.994,11.3L66.994,11.3z" fill="#E0E0E0"/>
    <path xmlns="http://www.w3.org/2000/svg" d="M71.652,11.3l0.723,0l0,-1.088l1.38,0L73.755,11.3l2.202,0l0,0.877l-2.202,0l0,2.458c0.011,0.439,0.011,0.639,0.59,0.639c0.779,0,0.691,-0.511,0.691,-1.011l1.216,0c0.021,1.45,-0.417,1.889,-1.907,1.889c-1.509,0,-1.969,-0.292,-1.969,-1.508l0,-2.467l-0.724,0L71.652,11.3L71.652,11.3z" fill="#E0E0E0"/>
    <path xmlns="http://www.w3.org/2000/svg" d="M82.125,14.572c0,1.508,-1.042,1.581,-2.683,1.581c-2.202,0,-2.647,-0.585,-2.647,-2.439c0,-1.719,0.326,-2.465,2.647,-2.465c2.368,0,2.683,0.576,2.683,2.668l-3.954,0c0,1.032,0.033,1.362,1.27,1.362c0.767,0,1.306,0.009,1.306,-0.706L82.125,14.572L82.125,14.572zM80.745,13.183c0,-0.987,-0.175,-1.062,-1.306,-1.062c-1.194,0,-1.27,0.21,-1.27,1.062L80.745,13.183z" fill="#E0E0E0"/>
    <path xmlns="http://www.w3.org/2000/svg" d="M84.505,11.3l-0.03,0.631l0.055,0c0.274,-0.53,0.866,-0.684,1.533,-0.684c1.216,0,1.512,0.604,1.512,1.508l0,0.384l-1.292,0l0,-0.247c0,-0.484,-0.056,-0.768,-0.702,-0.768c-0.821,0,-1.062,0.396,-1.042,1.015l0,2.961l-1.381,0l0,-4.798L84.505,11.3L84.505,11.3z" fill="#E0E0E0"/>
    <path xmlns="http://www.w3.org/2000/svg" d="M91.702,16.29c-0.32,1.088,-0.584,1.935,-2.19,1.935c-0.197,0,-0.394,-0.025,-0.591,-0.037L88.921,17.32c0.099,0.009,0.201,0.028,0.295,0.028c0.865,0,0.997,-0.695,1.12,-1.254l-0.667,0l-1.895,-4.798l1.427,0l1.456,4.085l0.02,0l1.119,-4.085l1.402,0L91.702,16.29z" fill="#E0E0E0"/>
   </g>
  </g>
  <path xmlns="http://www.w3.org/2000/svg" d="M135.506,10.888c0,1.08,-1.406,1.956,-3.141,1.956L16.089,12.844c-1.732,0,-3.14,-0.8,-3.14,-1.88L12.949,5.069c0,-1.081,1.406,-2.033,3.14,-2.033l116.275,0c1.735,0,3.143,0.876,3.143,1.957L135.507,10.888L135.506,10.888z" fill="#FFFFFF" enable-background="new    " opacity="0.35"/>
 </g>
 <g xmlns="http://www.w3.org/2000/svg">
  <path xmlns="http://www.w3.org/2000/svg" d="M7.764,61.726c0,1.781,1.746,3.24,3.883,3.24l121.924,0c2.136,0,3.883,-1.459,3.883,-3.24L137.454,37.963c0,-1.781,-1.747,-3.24,-3.883,-3.24L11.647,34.723c-2.137,0,-3.883,1.458,-3.883,3.24L7.764,61.726z" fill="#353535"/>
  <path xmlns="http://www.w3.org/2000/svg" d="M45.356,34.726L11.647,34.726c-2.137,0,-3.883,1.458,-3.883,3.239l0,23.763c0,1.781,1.746,3.24,3.883,3.24l33.709,0L45.356,34.726L45.356,34.726z" fill="#CE925D"/>
  <path xmlns="http://www.w3.org/2000/svg" d="M133.278,63.729c1.607,0,3.657,-1.244,3.657,-2.715l0,-6.801c0,1.473,-2.05,3.782,-3.657,3.782L12.235,57.995c-1.607,0,-3.658,-2.309,-3.658,-3.782l0,6.801c0,1.474,2.051,2.715,3.658,2.715L133.278,63.729z" enable-background="new    " opacity="0.35"/>
  <path xmlns="http://www.w3.org/2000/svg" d="M7.873,49.645c0,6.774,0.311,12.263,0.693,12.263c0.383,0,0.383,-24.524,0,-24.524C8.183,37.384,7.873,42.874,7.873,49.645" fill="#B2B2B2"/>
  <path xmlns="http://www.w3.org/2000/svg" d="M8.131,53.827c0.253,0,0.253,-9.062,0,-9.062l0.007,0.001c0,0.558,-0.542,1.011,-1.209,1.011L6.377,45.777c-0.666,0,-1.212,0.455,-1.212,1.012L5.165,51.8c0,0.557,0.546,1.012,1.212,1.012l0.551,0c0.667,0,1.209,0.452,1.209,1.012L8.131,53.827L8.131,53.827z" fill="#7C7C7C"/>
  <g xmlns="http://www.w3.org/2000/svg">
   <g xmlns="http://www.w3.org/2000/svg">
    <path xmlns="http://www.w3.org/2000/svg" d="M112.387,50.167l0.516,-1.297l1.632,0l-2.728,6.853l-2.322,0l-2.781,-6.853l1.6,0l0.537,1.297L112.387,50.167zM110.603,54.717l0.021,0l1.402,-3.555l-2.837,0L110.603,54.717z" fill="#E0E0E0"/>
    <path xmlns="http://www.w3.org/2000/svg" d="M120.387,50.167l0.516,-1.297l1.632,0l-2.728,6.853l-2.322,0l-2.781,-6.853l1.6,0l0.537,1.297L120.387,50.167zM118.603,54.717l0.021,0l1.402,-3.555l-2.837,0L118.603,54.717z" fill="#E0E0E0"/>
    <path xmlns="http://www.w3.org/2000/svg" d="M104.618,50.167l0.515,-1.297l1.633,0l-2.728,6.853l-2.322,0l-2.781,-6.853l1.599,0l0.537,1.297L104.618,50.167zM102.833,54.717l0.022,0l1.401,-3.555l-2.838,0L102.833,54.717z" fill="#E0E0E0"/>
    <path xmlns="http://www.w3.org/2000/svg" d="M94.406,48.867l0,6.853l-4.09,0c-1.609,0,-2.417,-0.271,-2.417,-1.782c0,-0.784,0.173,-1.316,1.169,-1.514l0,-0.039c-1.15,-0.11,-1.368,-0.741,-1.368,-1.606c0,-1.518,0.742,-1.91,2.477,-1.91L94.406,48.867L94.406,48.867zM92.828,49.992l-2.157,0c-0.939,0,-1.39,0.055,-1.39,0.895c0,0.749,0.198,0.969,1.127,0.969l2.418,0L92.828,49.992L92.828,49.992zM92.828,52.852l-2.266,0c-0.89,0,-1.084,0.228,-1.084,0.96c0,0.731,0.35,0.787,1.127,0.787l2.224,0L92.828,52.852L92.828,52.852z" fill="#E0E0E0"/>
    <path xmlns="http://www.w3.org/2000/svg" d="M82.824,49.471l0.033,0c0.273,-0.643,1.116,-0.658,1.785,-0.658c1.304,0,2.148,0.228,2.148,1.525c0,1.152,-0.723,1.472,-2.148,1.472c-0.701,0,-1.39,-0.009,-1.718,-0.549l-0.044,0l0,0.622c0,0.777,0.077,1.05,1.226,1.05c0.603,0,1.085,-0.046,1.085,-0.666l1.384,0c0,1.397,-1.151,1.45,-2.466,1.45c-1.838,0,-2.605,-0.238,-2.605,-1.847l0,-3.005l1.38,0L82.824,49.471zM85.408,50.339c0,-0.676,-0.326,-0.74,-1.259,-0.74c-0.735,0,-1.271,0.052,-1.271,0.74c0,0.667,0.589,0.686,1.271,0.686C84.851,51.025,85.408,51.025,85.408,50.339z" fill="#E0E0E0"/>
    <path xmlns="http://www.w3.org/2000/svg" d="M80.828,53.666l-0.723,0l0,1.087l-1.381,0l0,-1.087l-2.201,0L76.523,52.79l2.201,0L78.724,50.33c-0.013,-0.439,-0.013,-0.642,-0.59,-0.642c-0.778,0,-0.69,0.513,-0.69,1.016l-1.215,0c-0.022,-1.452,0.417,-1.89,1.906,-1.89c1.511,0,1.972,0.292,1.972,1.507l0,2.467l0.723,0L80.828,53.666L80.828,53.666z" fill="#E0E0E0"/>
    <path xmlns="http://www.w3.org/2000/svg" d="M76.17,53.666l-0.723,0l0,1.087l-1.38,0l0,-1.087l-2.202,0L71.865,52.79l2.202,0L74.067,50.33c-0.011,-0.439,-0.011,-0.642,-0.589,-0.642c-0.78,0,-0.691,0.513,-0.691,1.016l-1.217,0c-0.02,-1.452,0.418,-1.89,1.908,-1.89c1.508,0,1.969,0.292,1.969,1.507l0,2.467l0.723,0L76.17,53.666L76.17,53.666z" fill="#E0E0E0"/>
    <path xmlns="http://www.w3.org/2000/svg" d="M65.697,50.394c0,-1.508,1.042,-1.581,2.683,-1.581c2.202,0,2.647,0.585,2.647,2.44c0,1.72,-0.326,2.466,-2.647,2.466c-2.368,0,-2.683,-0.576,-2.683,-2.669l3.954,0c0,-1.032,-0.033,-1.362,-1.27,-1.362c-0.768,0,-1.306,-0.009,-1.306,0.706L65.697,50.394L65.697,50.394zM67.077,51.783c0,0.987,0.175,1.063,1.306,1.063c1.195,0,1.271,-0.209,1.271,-1.063L67.077,51.783z" fill="#E0E0E0"/>
    <path xmlns="http://www.w3.org/2000/svg" d="M63.317,53.666l0.03,-0.631l-0.055,0c-0.274,0.531,-0.866,0.684,-1.534,0.684c-1.215,0,-1.511,-0.604,-1.511,-1.508l0,-0.384l1.292,0l0,0.247c0,0.484,0.055,0.768,0.701,0.768c0.821,0,1.062,-0.396,1.043,-1.014l0,-2.961l1.38,0l0,4.797L63.317,53.666L63.317,53.666z" fill="#E0E0E0"/>
    <path xmlns="http://www.w3.org/2000/svg" d="M56.12,48.674c0.32,-1.088,0.583,-1.936,2.189,-1.936c0.197,0,0.395,0.025,0.592,0.036l0,0.869c-0.099,-0.009,-0.2,-0.027,-0.296,-0.027c-0.866,0,-0.997,0.695,-1.121,1.254l0.668,0l1.895,4.798l-1.427,0l-1.457,-4.085l-0.021,0l-1.118,4.085l-1.402,0L56.12,48.674z" fill="#E0E0E0"/>
   </g>
  </g>
  <path xmlns="http://www.w3.org/2000/svg" d="M11.53,43.658c0,1.082,1.406,1.955,3.139,1.955l116.276,0c1.732,0,3.141,-0.799,3.141,-1.879l0,-5.895c0,-1.081,-1.408,-2.033,-3.141,-2.033L14.671,35.806c-1.732,0,-3.14,0.876,-3.14,1.957L11.53,43.658L11.53,43.658z" fill="#FFFFFF" enable-background="new    " opacity="0.35"/>
 </g>
 <path xmlns="http://www.w3.org/2000/svg" stroke="#C9C9C9" d="M2.145,113.432L2.145,73.396c0,-0.591,0.388,-1.079,0.863,-1.079s0.86,0.488,0.86,1.079l0.913,19.527c0,0.595,0.391,1.08,0.863,1.08s0.863,-0.485,0.863,-1.08L7.42,77.795c0,-0.594,0.389,-1.08,0.861,-1.08c0.475,0,0.861,0.486,0.861,1.08l0,11.887" fill="none" stroke-width="0.8345"/>
 <path xmlns="http://www.w3.org/2000/svg" stroke="#C9C9C9" d="M137.822,57.679L137.822,45.792c0,-0.594,0.386,-1.08,0.861,-1.08c0.471,0,0.86,0.486,0.86,1.08l0.913,15.128c0,0.595,0.391,1.08,0.863,1.08c0.472,0,0.863,-0.485,0.863,-1.08l0.912,-19.527c0,-0.591,0.387,-1.079,0.861,-1.079s0.862,0.488,0.862,1.079L144.817,81.43" fill="none" stroke-width="0.8345"/>
 <path xmlns="http://www.w3.org/2000/svg" stroke="#C9C9C9" d="M137.709,111.262l0,11.887c0,0.594,0.39,1.081,0.861,1.081c0.476,0,0.862,-0.487,0.862,-1.081l0.914,-15.128c0,-0.594,0.387,-1.08,0.861,-1.08s0.86,0.486,0.86,1.08l0.913,19.528c0,0.592,0.391,1.078,0.862,1.078c0.473,0,0.863,-0.486,0.863,-1.078l0,-23.965c0,-0.59,0.584,-1.079,1.295,-1.079l1.465,0" fill="none" stroke-width="0.8345"/>
 <rect xmlns="http://www.w3.org/2000/svg" height="12.025" fill="#C9C9C9" x="1.706" y="109.155" width="3.46"/>
 <rect xmlns="http://www.w3.org/2000/svg" height="12.028" fill="#C9C9C9" x="141.869" y="76.531" width="2.95"/>
 <g xmlns="http://www.w3.org/2000/svg">
  <path xmlns="http://www.w3.org/2000/svg" d="M139.273,95.051c0,1.783,-1.747,3.24,-3.883,3.24L13.464,98.291c-2.136,0,-3.883,-1.457,-3.883,-3.24L9.581,71.291c0,-1.781,1.747,-3.239,3.883,-3.239L135.39,68.052c2.137,0,3.884,1.458,3.884,3.239L139.273,95.051L139.273,95.051z" fill="#353535"/>
  <path xmlns="http://www.w3.org/2000/svg" d="M101.94,68.101l33.709,0c2.136,0,3.883,1.456,3.883,3.239l0,23.766c0,1.782,-1.747,3.24,-3.883,3.24L101.94,98.346L101.94,68.101z" fill="#CE925D"/>
  <path xmlns="http://www.w3.org/2000/svg" d="M13.758,97.052c-1.607,0,-3.658,-1.241,-3.658,-2.714l0,-6.801c0,1.474,2.051,3.783,3.658,3.783l121.041,0c1.608,0,3.659,-2.31,3.659,-3.783l0,6.802c0,1.474,-2.051,2.714,-3.659,2.714L13.758,97.052L13.758,97.052z" enable-background="new    " opacity="0.35"/>
  <path xmlns="http://www.w3.org/2000/svg" d="M139.164,82.97c0,6.774,-0.31,12.263,-0.691,12.263s-0.382,-24.523,0,-24.523S139.164,76.199,139.164,82.97" fill="#B2B2B2"/>
  <path xmlns="http://www.w3.org/2000/svg" d="M138.906,87.151c-0.254,0,-0.254,-9.062,0,-9.062l-0.008,0.001c0,0.559,0.543,1.011,1.212,1.011l0.549,0c0.668,0,1.211,0.452,1.211,1.012l0,5.011c0,0.557,-0.543,1.013,-1.211,1.013l-0.549,0c-0.669,0,-1.212,0.452,-1.212,1.011L138.906,87.151L138.906,87.151z" fill="#7C7C7C"/>
  <g xmlns="http://www.w3.org/2000/svg">
   <g xmlns="http://www.w3.org/2000/svg">
    <path xmlns="http://www.w3.org/2000/svg" d="M35.434,80.895l-0.515,1.296l-1.632,0l2.727,-6.852l2.322,0l2.781,6.852l-1.599,0l-0.536,-1.296L35.434,80.895zM37.218,76.345l-0.022,0l-1.401,3.556l2.836,0L37.218,76.345z" fill="#E0E0E0"/>
    <path xmlns="http://www.w3.org/2000/svg" d="M27.472,80.895l-0.515,1.296l-1.632,0l2.727,-6.852l2.322,0l2.781,6.852l-1.599,0l-0.536,-1.296L27.472,80.895zM29.256,76.345l-0.022,0l-1.401,3.556l2.836,0L29.256,76.345z" fill="#E0E0E0"/>
    <path xmlns="http://www.w3.org/2000/svg" d="M43.203,80.895l-0.515,1.296l-1.629,0l2.724,-6.852l2.322,0l2.782,6.852l-1.599,0l-0.536,-1.296L43.203,80.895zM44.987,76.345l-0.021,0l-1.403,3.556l2.836,0L44.987,76.345z" fill="#E0E0E0"/>
    <path xmlns="http://www.w3.org/2000/svg" d="M53.417,82.194l0,-6.853l4.088,0c1.61,0,2.417,0.272,2.417,1.782c0,0.783,-0.173,1.316,-1.169,1.516l0,0.038c1.15,0.11,1.369,0.741,1.369,1.606c0,1.518,-0.745,1.91,-2.476,1.91L53.417,82.193L53.417,82.194zM54.994,78.209l2.264,0c0.891,0,1.085,-0.229,1.085,-0.959s-0.351,-0.786,-1.128,-0.786l-2.224,0L54.994,78.209L54.994,78.209zM54.994,81.069l2.158,0c0.938,0,1.389,-0.055,1.389,-0.895c0,-0.749,-0.197,-0.969,-1.125,-0.969l-2.42,0L54.994,81.069L54.994,81.069z" fill="#E0E0E0"/>
    <path xmlns="http://www.w3.org/2000/svg" d="M64.998,81.59l-0.033,0c-0.274,0.641,-1.117,0.657,-1.786,0.657c-1.303,0,-2.146,-0.229,-2.146,-1.526c0,-1.151,0.723,-1.471,2.146,-1.471c0.702,0,1.391,0.009,1.72,0.548l0.044,0l0,-0.622c0,-0.776,-0.077,-1.051,-1.227,-1.051c-0.603,0,-1.085,0.048,-1.085,0.667L61.25,78.792c0,-1.397,1.153,-1.45,2.464,-1.45c1.843,0,2.606,0.237,2.606,1.846l0,3.004l-1.382,0L64.998,81.59zM62.413,80.722c0,0.677,0.326,0.741,1.259,0.741c0.733,0,1.271,-0.053,1.271,-0.741c0,-0.667,-0.59,-0.685,-1.271,-0.685C62.971,80.037,62.413,80.037,62.413,80.722z" fill="#E0E0E0"/>
    <path xmlns="http://www.w3.org/2000/svg" d="M66.994,77.396l0.724,0l0,-1.088l1.38,0l0,1.088l2.201,0l0,0.877l-2.201,0l0,2.458c0.013,0.439,0.013,0.639,0.59,0.639c0.778,0,0.69,-0.51,0.69,-1.011l1.216,0c0.022,1.45,-0.417,1.889,-1.906,1.889c-1.511,0,-1.972,-0.292,-1.972,-1.509l0,-2.467l-0.724,0L66.994,77.396L66.994,77.396z" fill="#E0E0E0"/>
    <path xmlns="http://www.w3.org/2000/svg" d="M71.652,77.396l0.723,0l0,-1.088l1.38,0l0,1.088l2.202,0l0,0.877l-2.202,0l0,2.458c0.011,0.439,0.011,0.639,0.59,0.639c0.779,0,0.691,-0.51,0.691,-1.011l1.216,0c0.021,1.45,-0.417,1.889,-1.907,1.889c-1.509,0,-1.969,-0.292,-1.969,-1.509l0,-2.467l-0.724,0L71.652,77.396L71.652,77.396z" fill="#E0E0E0"/>
    <path xmlns="http://www.w3.org/2000/svg" d="M82.125,80.668c0,1.508,-1.042,1.58,-2.683,1.58c-2.202,0,-2.647,-0.584,-2.647,-2.439c0,-1.719,0.326,-2.465,2.647,-2.465c2.368,0,2.683,0.576,2.683,2.668l-3.954,0c0,1.032,0.033,1.361,1.27,1.361c0.767,0,1.306,0.01,1.306,-0.705L82.125,80.668L82.125,80.668zM80.745,79.279c0,-0.987,-0.175,-1.062,-1.306,-1.062c-1.194,0,-1.27,0.21,-1.27,1.062L80.745,79.279z" fill="#E0E0E0"/>
    <path xmlns="http://www.w3.org/2000/svg" d="M84.505,77.396l-0.03,0.631l0.055,0c0.274,-0.53,0.866,-0.684,1.533,-0.684c1.216,0,1.512,0.604,1.512,1.508l0,0.384l-1.292,0l0,-0.246c0,-0.484,-0.056,-0.769,-0.702,-0.769c-0.821,0,-1.062,0.396,-1.042,1.015l0,2.961l-1.381,0l0,-4.797L84.505,77.396L84.505,77.396z" fill="#E0E0E0"/>
    <path xmlns="http://www.w3.org/2000/svg" d="M91.702,82.385c-0.32,1.088,-0.584,1.936,-2.19,1.936c-0.197,0,-0.394,-0.025,-0.591,-0.037l0,-0.868c0.099,0.009,0.201,0.028,0.295,0.028c0.865,0,0.997,-0.695,1.12,-1.255l-0.667,0l-1.895,-4.798l1.427,0l1.456,4.085l0.02,0l1.119,-4.085l1.402,0L91.702,82.385z" fill="#E0E0E0"/>
   </g>
  </g>
  <path xmlns="http://www.w3.org/2000/svg" d="M135.506,76.983c0,1.08,-1.406,1.956,-3.141,1.956L16.089,78.939c-1.732,0,-3.14,-0.8,-3.14,-1.88l0,-5.895c0,-1.08,1.406,-2.033,3.14,-2.033l116.275,0c1.735,0,3.143,0.877,3.143,1.957L135.507,76.983L135.506,76.983z" fill="#FFFFFF" enable-background="new    " opacity="0.35"/>
 </g>
 <g xmlns="http://www.w3.org/2000/svg">
  <path xmlns="http://www.w3.org/2000/svg" d="M7.764,127.822c0,1.78,1.746,3.24,3.883,3.24l121.924,0c2.136,0,3.883,-1.46,3.883,-3.24l0,-23.763c0,-1.781,-1.747,-3.24,-3.883,-3.24L11.647,100.819c-2.137,0,-3.883,1.459,-3.883,3.24L7.764,127.822z" fill="#353535"/>
  <path xmlns="http://www.w3.org/2000/svg" d="M45.356,100.822L11.647,100.822c-2.137,0,-3.883,1.458,-3.883,3.239l0,23.764c0,1.781,1.746,3.239,3.883,3.239l33.709,0L45.356,100.822L45.356,100.822z" fill="#CE925D"/>
  <path xmlns="http://www.w3.org/2000/svg" d="M133.278,129.825c1.607,0,3.657,-1.244,3.657,-2.715l0,-6.802c0,1.474,-2.05,3.782,-3.657,3.782L12.235,124.09c-1.607,0,-3.658,-2.309,-3.658,-3.782l0,6.802c0,1.474,2.051,2.715,3.658,2.715L133.278,129.825z" enable-background="new    " opacity="0.35"/>
  <path xmlns="http://www.w3.org/2000/svg" d="M7.873,115.741c0,6.773,0.311,12.264,0.693,12.264c0.383,0,0.383,-24.525,0,-24.525C8.183,103.479,7.873,108.969,7.873,115.741" fill="#B2B2B2"/>
  <path xmlns="http://www.w3.org/2000/svg" d="M8.131,119.922c0.253,0,0.253,-9.062,0,-9.062l0.007,0.001c0,0.559,-0.542,1.011,-1.209,1.011L6.377,111.872c-0.666,0,-1.212,0.455,-1.212,1.012l0,5.012c0,0.557,0.546,1.012,1.212,1.012l0.551,0c0.667,0,1.209,0.452,1.209,1.013L8.131,119.922L8.131,119.922z" fill="#7C7C7C"/>
  <g xmlns="http://www.w3.org/2000/svg">
   <g xmlns="http://www.w3.org/2000/svg">
    <path xmlns="http://www.w3.org/2000/svg" d="M112.387,116.262l0.516,-1.297l1.632,0l-2.728,6.853l-2.322,0l-2.781,-6.853l1.6,0l0.537,1.297L112.387,116.262zM110.603,120.813l0.021,0l1.402,-3.555l-2.837,0L110.603,120.813z" fill="#E0E0E0"/>
    <path xmlns="http://www.w3.org/2000/svg" d="M120.387,116.262l0.516,-1.297l1.632,0l-2.728,6.853l-2.322,0l-2.781,-6.853l1.6,0l0.537,1.297L120.387,116.262zM118.603,120.813l0.021,0l1.402,-3.555l-2.837,0L118.603,120.813z" fill="#E0E0E0"/>
    <path xmlns="http://www.w3.org/2000/svg" d="M104.618,116.262l0.515,-1.297l1.633,0l-2.728,6.853l-2.322,0l-2.781,-6.853l1.599,0l0.537,1.297L104.618,116.262zM102.833,120.813l0.022,0l1.401,-3.555l-2.838,0L102.833,120.813z" fill="#E0E0E0"/>
    <path xmlns="http://www.w3.org/2000/svg" d="M94.406,114.963l0,6.852l-4.09,0c-1.609,0,-2.417,-0.271,-2.417,-1.781c0,-0.784,0.173,-1.316,1.169,-1.515l0,-0.039c-1.15,-0.11,-1.368,-0.741,-1.368,-1.606c0,-1.518,0.742,-1.91,2.477,-1.91L94.406,114.964L94.406,114.963zM92.828,116.088l-2.157,0c-0.939,0,-1.39,0.055,-1.39,0.895c0,0.749,0.198,0.969,1.127,0.969l2.418,0L92.828,116.088L92.828,116.088zM92.828,118.948l-2.266,0c-0.89,0,-1.084,0.229,-1.084,0.96s0.35,0.786,1.127,0.786l2.224,0L92.828,118.948L92.828,118.948z" fill="#E0E0E0"/>
    <path xmlns="http://www.w3.org/2000/svg" d="M82.824,115.567l0.033,0c0.273,-0.643,1.116,-0.658,1.785,-0.658c1.304,0,2.148,0.228,2.148,1.525c0,1.151,-0.723,1.472,-2.148,1.472c-0.701,0,-1.39,-0.009,-1.718,-0.55l-0.044,0l0,0.623c0,0.776,0.077,1.05,1.226,1.05c0.603,0,1.085,-0.046,1.085,-0.666l1.384,0c0,1.397,-1.151,1.45,-2.466,1.45c-1.838,0,-2.605,-0.238,-2.605,-1.847l0,-3.005l1.38,0L82.824,115.567zM85.408,116.434c0,-0.676,-0.326,-0.739,-1.259,-0.739c-0.735,0,-1.271,0.052,-1.271,0.739c0,0.668,0.589,0.686,1.271,0.686C84.851,117.122,85.408,117.122,85.408,116.434z" fill="#E0E0E0"/>
    <path xmlns="http://www.w3.org/2000/svg" d="M80.828,119.762l-0.723,0l0,1.087l-1.381,0l0,-1.087l-2.201,0l0,-0.877l2.201,0l0,-2.459c-0.013,-0.439,-0.013,-0.643,-0.59,-0.643c-0.778,0,-0.69,0.514,-0.69,1.016l-1.215,0c-0.022,-1.451,0.417,-1.89,1.906,-1.89c1.511,0,1.972,0.292,1.972,1.507l0,2.467l0.723,0L80.828,119.762L80.828,119.762z" fill="#E0E0E0"/>
    <path xmlns="http://www.w3.org/2000/svg" d="M76.17,119.762l-0.723,0l0,1.087l-1.38,0l0,-1.087l-2.202,0l0,-0.877l2.202,0l0,-2.459c-0.011,-0.439,-0.011,-0.643,-0.589,-0.643c-0.78,0,-0.691,0.514,-0.691,1.016l-1.217,0c-0.02,-1.451,0.418,-1.89,1.908,-1.89c1.508,0,1.969,0.292,1.969,1.507l0,2.467l0.723,0L76.17,119.762L76.17,119.762z" fill="#E0E0E0"/>
    <path xmlns="http://www.w3.org/2000/svg" d="M65.697,116.489c0,-1.508,1.042,-1.58,2.683,-1.58c2.202,0,2.647,0.585,2.647,2.439c0,1.721,-0.326,2.467,-2.647,2.467c-2.368,0,-2.683,-0.576,-2.683,-2.67l3.954,0c0,-1.031,-0.033,-1.361,-1.27,-1.361c-0.768,0,-1.306,-0.01,-1.306,0.705L65.697,116.489L65.697,116.489zM67.077,117.879c0,0.986,0.175,1.062,1.306,1.062c1.195,0,1.271,-0.209,1.271,-1.062L67.077,117.879z" fill="#E0E0E0"/>
    <path xmlns="http://www.w3.org/2000/svg" d="M63.317,119.762l0.03,-0.631l-0.055,0c-0.274,0.531,-0.866,0.684,-1.534,0.684c-1.215,0,-1.511,-0.604,-1.511,-1.508l0,-0.385l1.292,0l0,0.246c0,0.484,0.055,0.768,0.701,0.768c0.821,0,1.062,-0.396,1.043,-1.014l0,-2.961l1.38,0l0,4.797L63.317,119.762L63.317,119.762z" fill="#E0E0E0"/>
    <path xmlns="http://www.w3.org/2000/svg" d="M56.12,114.77c0.32,-1.088,0.583,-1.936,2.189,-1.936c0.197,0,0.395,0.025,0.592,0.036l0,0.868c-0.099,-0.009,-0.2,-0.027,-0.296,-0.027c-0.866,0,-0.997,0.695,-1.121,1.254l0.668,0l1.895,4.799l-1.427,0l-1.457,-4.086l-0.021,0l-1.118,4.086l-1.402,0L56.12,114.77z" fill="#E0E0E0"/>
   </g>
  </g>
  <path xmlns="http://www.w3.org/2000/svg" d="M11.53,109.753c0,1.082,1.406,1.955,3.139,1.955l116.276,0c1.732,0,3.141,-0.799,3.141,-1.88l0,-5.895c0,-1.08,-1.408,-2.033,-3.141,-2.033L14.671,101.9c-1.732,0,-3.14,0.877,-3.14,1.957L11.53,109.753L11.53,109.753z" fill="#FFFFFF" enable-background="new    " opacity="0.35"/>
 </g>
 <g xmlns="http://www.w3.org/2000/svg">
  <path xmlns="http://www.w3.org/2000/svg" d="M7.357,0.109l1.79,1.16c0,0,1.276,1.206,2.389,2.492c0.663,0.767,1.218,3.466,2.036,4.151c0.821,0.683,1.993,0.831,2.987,0.831c0.277,0,23.058,0,23.335,0c0.995,0,2.164,-0.145,2.986,-0.831c0.82,-0.685,1.378,-3.384,2.039,-4.151c1.111,-1.286,2.389,-2.492,2.389,-2.492l1.79,-1.16L7.357,0.109z" fill="#1A1A1A"/>
  <path xmlns="http://www.w3.org/2000/svg" d="M9.941,0.984l0.466,0.145c0,0,0,0.539,1.037,1.111c0.623,0.342,1.138,0.492,1.904,0.798c0.768,0.305,1.858,0.37,2.791,0.37c0.258,0,23.918,0,24.181,0c0.932,0,2.021,-0.065,2.787,-0.37c0.768,-0.306,1.286,-0.456,1.904,-0.798c1.041,-0.573,1.04,-1.111,1.04,-1.111l0.458,-0.144L9.941,0.984z" fill="#FFFFFF" enable-background="new    " opacity="0.2"/>
 </g>
 <g xmlns="http://www.w3.org/2000/svg">
  <path xmlns="http://www.w3.org/2000/svg" d="M98.374,0.109l1.79,1.16c0,0,1.276,1.206,2.389,2.492c0.663,0.767,1.219,3.466,2.036,4.151c0.82,0.683,1.993,0.831,2.987,0.831c0.278,0,23.058,0,23.334,0c0.996,0,2.165,-0.145,2.988,-0.831c0.818,-0.685,1.376,-3.384,2.036,-4.151c1.112,-1.286,2.39,-2.492,2.39,-2.492l1.79,-1.16L98.374,0.109z" fill="#1A1A1A"/>
  <path xmlns="http://www.w3.org/2000/svg" d="M100.958,0.984l0.468,0.145c0,0,0,0.539,1.036,1.111c0.623,0.342,1.138,0.492,1.904,0.798c0.771,0.305,1.858,0.37,2.791,0.37c0.258,0,23.919,0,24.182,0c0.932,0,2.021,-0.065,2.788,-0.37c0.768,-0.306,1.284,-0.456,1.905,-0.798c1.039,-0.573,1.038,-1.111,1.038,-1.111l0.458,-0.144L100.958,0.984z" fill="#FFFFFF" enable-background="new    " opacity="0.2"/>
 </g>
 <g xmlns="http://www.w3.org/2000/svg">
  <path xmlns="http://www.w3.org/2000/svg" d="M7.357,132.767l1.79,-1.161c0,0,1.276,-1.205,2.389,-2.492c0.663,-0.766,1.218,-3.466,2.036,-4.15c0.821,-0.685,1.993,-0.83,2.987,-0.83c0.277,0,23.058,0,23.335,0c0.995,0,2.164,0.143,2.986,0.83c0.82,0.685,1.378,3.385,2.039,4.15c1.111,1.287,2.389,2.492,2.389,2.492l1.79,1.161L7.357,132.767z" fill="#1A1A1A"/>
  <path xmlns="http://www.w3.org/2000/svg" d="M9.941,131.893l0.466,-0.145c0,0,0,-0.539,1.037,-1.111c0.623,-0.344,1.138,-0.492,1.904,-0.798c0.768,-0.306,1.858,-0.37,2.791,-0.37c0.258,0,23.918,0,24.181,0c0.932,0,2.021,0.064,2.787,0.37c0.768,0.304,1.286,0.454,1.904,0.798c1.041,0.572,1.04,1.111,1.04,1.111l0.458,0.141L9.941,131.893z"/>
 </g>
 <g xmlns="http://www.w3.org/2000/svg">
  <path xmlns="http://www.w3.org/2000/svg" d="M98.374,132.767l1.79,-1.161c0,0,1.276,-1.205,2.389,-2.492c0.663,-0.766,1.219,-3.466,2.036,-4.15c0.82,-0.685,1.993,-0.83,2.987,-0.83c0.278,0,23.058,0,23.334,0c0.996,0,2.165,0.143,2.988,0.83c0.819,0.686,1.376,3.385,2.036,4.15c1.112,1.287,2.39,2.492,2.39,2.492l1.79,1.161L98.374,132.767z" fill="#1A1A1A"/>
  <path xmlns="http://www.w3.org/2000/svg" d="M100.958,131.893l0.468,-0.145c0,0,0,-0.539,1.036,-1.111c0.623,-0.344,1.138,-0.492,1.904,-0.798c0.771,-0.306,1.858,-0.37,2.791,-0.37c0.258,0,23.919,0,24.182,0c0.932,0,2.021,0.064,2.788,0.37c0.768,0.304,1.284,0.454,1.905,0.798c1.039,0.572,1.038,1.111,1.038,1.111l0.458,0.141L100.958,131.893z"/>
 </g>
 <path xmlns="http://www.w3.org/2000/svg" stroke="#000000" d="M147.467,102.505l5.633,0" fill="none" stroke-width="2.5034"/>
 <path xmlns="http://www.w3.org/2000/svg" stroke="#FF0000" d="M147.467,25.906l5.633,0" fill="none" stroke-width="2.5034"/>
</g>
</g></g></g><g partID='66680'><line stroke-linecap='round' stroke='#ad6a38' x1='124.862' y1='215.7' x2='123.162' y2='150.9' stroke-width='3.2' /><line stroke-linecap='round' stroke='#ef6100' x1='124.862' y1='215.7' x2='123.162' y2='150.9' stroke-width='1.6' /></g><g partID='66470'><line stroke-linecap='round' stroke='#ad6a38' x1='153.662' y1='215.7' x2='124.862' y2='215.7' stroke-width='3.2' /><line stroke-linecap='round' stroke='#ef6100' x1='153.662' y1='215.7' x2='124.862' y2='215.7' stroke-width='1.6' /></g><g partID='69980'><line stroke-linecap='round' stroke='#00a527' x1='117.662' y1='172.5' x2='117.662' y2='172.5' stroke-width='3.2' /><line stroke-linecap='round' stroke='#25cc35' x1='117.662' y1='172.5' x2='117.662' y2='172.5' stroke-width='1.6' /></g><g partID='66610'><line stroke-linecap='round' stroke='#00a527' x1='117.662' y1='222.9' x2='117.662' y2='172.5' stroke-width='3.2' /><line stroke-linecap='round' stroke='#25cc35' x1='117.662' y1='222.9' x2='117.662' y2='172.5' stroke-width='1.6' /></g><g partID='66540'><line stroke-linecap='round' stroke='#00a527' x1='153.662' y1='222.9' x2='117.662' y2='222.9' stroke-width='3.2' /><line stroke-linecap='round' stroke='#25cc35' x1='153.662' y1='222.9' x2='117.662' y2='222.9' stroke-width='1.6' /></g><g partID='70250'><line stroke-linecap='round' stroke='#00a527' x1='117.662' y1='172.5' x2='117.662' y2='172.5' stroke-width='3.2' /><line stroke-linecap='round' stroke='#25cc35' x1='117.662' y1='172.5' x2='117.662' y2='172.5' stroke-width='1.6' /></g><g partID='70320'><line stroke-linecap='round' stroke='#00a527' x1='117.662' y1='172.5' x2='127.414' y2='150.9' stroke-width='3.2' /><line stroke-linecap='round' stroke='#25cc35' x1='117.662' y1='172.5' x2='127.414' y2='150.9' stroke-width='1.6' /></g><g partID='66750'><line stroke-linecap='round' stroke='#000000' x1='153.662' y1='201.3' x2='139.262' y2='201.3' stroke-width='3.2' /><line stroke-linecap='round' stroke='#404040' x1='153.662' y1='201.3' x2='139.262' y2='201.3' stroke-width='1.6' /></g><g partID='70120'><line stroke-linecap='round' stroke='#000000' x1='139.262' y1='201.3' x2='139.633' y2='149.388' stroke-width='3.2' /><line stroke-linecap='round' stroke='#404040' x1='139.262' y1='201.3' x2='139.633' y2='149.388' stroke-width='1.6' /></g><g partID='70050'><line stroke-linecap='round' stroke='#8c0000' x1='110.462' y1='230.1' x2='110.861' y2='149.388' stroke-width='3.2' /><line stroke-linecap='round' stroke='#cc1414' x1='110.462' y1='230.1' x2='110.861' y2='149.388' stroke-width='1.6' /></g><g partID='66820'><line stroke-linecap='round' stroke='#8c0000' x1='153.662' y1='230.1' x2='110.462' y2='230.1' stroke-width='3.2' /><line stroke-linecap='round' stroke='#cc1414' x1='153.662' y1='230.1' x2='110.462' y2='230.1' stroke-width='1.6' /></g><g partID='67180'><line stroke-linecap='round' stroke='#d6d63a' x1='81.6624' y1='237.3' x2='169.826' y2='236.94' stroke-width='3.2' /><line stroke-linecap='round' stroke='#fff800' x1='81.6624' y1='237.3' x2='169.826' y2='236.94' stroke-width='1.6' /></g><g partID='67230'><line stroke-linecap='round' stroke='#8c0000' x1='81.6624' y1='244.5' x2='169.826' y2='244.14' stroke-width='3.2' /><line stroke-linecap='round' stroke='#cc1414' x1='81.6624' y1='244.5' x2='169.826' y2='244.14' stroke-width='1.6' /></g><g partID='67260'><line stroke-linecap='round' stroke='#000000' x1='81.6624' y1='251.7' x2='169.826' y2='251.34' stroke-width='3.2' /><line stroke-linecap='round' stroke='#404040' x1='81.6624' y1='251.7' x2='169.826' y2='251.34' stroke-width='1.6' /></g><g partID='70190'><line stroke-linecap='round' stroke='#8c0000' x1='232.862' y1='158.1' x2='233.222' y2='183.3' stroke-width='3.2' /><line stroke-linecap='round' stroke='#cc1414' x1='232.862' y1='158.1' x2='233.222' y2='183.3' stroke-width='1.6' /></g><g partID='69820'><line stroke-linecap='round' stroke='#8c0000' x1='295.061' y1='158.1' x2='232.862' y2='158.1' stroke-width='3.2' /><line stroke-linecap='round' stroke='#cc1414' x1='295.061' y1='158.1' x2='232.862' y2='158.1' stroke-width='1.6' /></g><g partID='69850'><line stroke-linecap='round' stroke='#000000' x1='218.462' y1='158.1' x2='240.062' y2='179.7' stroke-width='3.2' /><line stroke-linecap='round' stroke='#404040' x1='218.462' y1='158.1' x2='240.062' y2='179.7' stroke-width='1.6' /></g><g partID='70220'><line stroke-linecap='round' stroke='#000000' x1='240.062' y1='179.7' x2='243.302' y2='183.3' stroke-width='3.2' /><line stroke-linecap='round' stroke='#404040' x1='240.062' y1='179.7' x2='243.302' y2='183.3' stroke-width='1.6' /></g></svg>